<mxfile host="app.diagrams.net" agent="Mozilla/5.0 (Windows NT 10.0; Win64; x64) AppleWebKit/537.36 (KHTML, like Gecko) Chrome/135.0.0.0 Safari/537.36" version="26.2.14">
  <diagram name="Página-1" id="F3ypCF-EcIqeJBtIhTK2">
    <mxGraphModel dx="1226" dy="661" grid="1" gridSize="10" guides="1" tooltips="1" connect="1" arrows="1" fold="1" page="1" pageScale="1" pageWidth="827" pageHeight="1169" math="0" shadow="0">
      <root>
        <mxCell id="0" />
        <mxCell id="1" parent="0" />
        <mxCell id="16Rfsz4Wqypu9OTbIEwm-1" value="Cliente" style="shape=umlActor;verticalLabelPosition=bottom;verticalAlign=top;html=1;outlineConnect=0;fillColor=#f0a30a;fontColor=#000000;strokeColor=#BD7000;" vertex="1" parent="1">
          <mxGeometry x="30" y="170" width="60" height="110" as="geometry" />
        </mxCell>
        <mxCell id="16Rfsz4Wqypu9OTbIEwm-2" value="Sistema de Informações para uma máquina ATM/Multibanco" style="swimlane;whiteSpace=wrap;html=1;fillColor=#a20025;fontColor=#ffffff;strokeColor=#6F0000;" vertex="1" parent="1">
          <mxGeometry x="150" y="80" width="527" height="550" as="geometry" />
        </mxCell>
        <mxCell id="16Rfsz4Wqypu9OTbIEwm-3" value="levantar dinheiro" style="ellipse;whiteSpace=wrap;html=1;fillColor=#d5e8d4;strokeColor=#82b366;" vertex="1" parent="16Rfsz4Wqypu9OTbIEwm-2">
          <mxGeometry x="47" y="65" width="100" height="50" as="geometry" />
        </mxCell>
        <mxCell id="16Rfsz4Wqypu9OTbIEwm-4" value="consultar saldo" style="ellipse;whiteSpace=wrap;html=1;fillColor=#dae8fc;strokeColor=#6c8ebf;" vertex="1" parent="16Rfsz4Wqypu9OTbIEwm-2">
          <mxGeometry x="47" y="150" width="100" height="50" as="geometry" />
        </mxCell>
        <mxCell id="16Rfsz4Wqypu9OTbIEwm-5" value="consultar movimentos" style="ellipse;whiteSpace=wrap;html=1;fillColor=#dae8fc;strokeColor=#6c8ebf;" vertex="1" parent="16Rfsz4Wqypu9OTbIEwm-2">
          <mxGeometry x="47" y="230" width="100" height="50" as="geometry" />
        </mxCell>
        <mxCell id="16Rfsz4Wqypu9OTbIEwm-6" value="efetuar pagamentos" style="ellipse;whiteSpace=wrap;html=1;fillColor=#ffe6cc;strokeColor=#d79b00;" vertex="1" parent="16Rfsz4Wqypu9OTbIEwm-2">
          <mxGeometry x="47" y="310" width="100" height="50" as="geometry" />
        </mxCell>
        <mxCell id="16Rfsz4Wqypu9OTbIEwm-7" value="efetuar pagamentos" style="ellipse;whiteSpace=wrap;html=1;fillColor=#ffe6cc;strokeColor=#d79b00;" vertex="1" parent="16Rfsz4Wqypu9OTbIEwm-2">
          <mxGeometry x="47" y="390" width="100" height="50" as="geometry" />
        </mxCell>
        <mxCell id="16Rfsz4Wqypu9OTbIEwm-8" value="colocar PIN" style="ellipse;whiteSpace=wrap;html=1;fillColor=#f8cecc;strokeColor=#b85450;" vertex="1" parent="16Rfsz4Wqypu9OTbIEwm-2">
          <mxGeometry x="330" y="340" width="130" height="60" as="geometry" />
        </mxCell>
        <mxCell id="16Rfsz4Wqypu9OTbIEwm-10" value="" style="endArrow=classic;html=1;rounded=0;exitX=0.5;exitY=0.5;exitDx=0;exitDy=0;exitPerimeter=0;" edge="1" parent="16Rfsz4Wqypu9OTbIEwm-2" source="16Rfsz4Wqypu9OTbIEwm-1">
          <mxGeometry width="50" height="50" relative="1" as="geometry">
            <mxPoint x="-70" y="140" as="sourcePoint" />
            <mxPoint x="40" y="100" as="targetPoint" />
          </mxGeometry>
        </mxCell>
        <mxCell id="16Rfsz4Wqypu9OTbIEwm-20" value="" style="endArrow=classic;html=1;rounded=0;" edge="1" parent="16Rfsz4Wqypu9OTbIEwm-2">
          <mxGeometry width="50" height="50" relative="1" as="geometry">
            <mxPoint x="147" y="90" as="sourcePoint" />
            <mxPoint x="570" y="90" as="targetPoint" />
          </mxGeometry>
        </mxCell>
        <mxCell id="16Rfsz4Wqypu9OTbIEwm-21" value="emitir talão" style="ellipse;whiteSpace=wrap;html=1;fillColor=#f5f5f5;fontColor=#333333;strokeColor=#666666;" vertex="1" parent="16Rfsz4Wqypu9OTbIEwm-2">
          <mxGeometry x="330" y="145" width="130" height="60" as="geometry" />
        </mxCell>
        <mxCell id="16Rfsz4Wqypu9OTbIEwm-32" value="" style="endArrow=classic;html=1;rounded=0;entryX=0.039;entryY=0.725;entryDx=0;entryDy=0;entryPerimeter=0;dashed=1;" edge="1" parent="16Rfsz4Wqypu9OTbIEwm-2" target="16Rfsz4Wqypu9OTbIEwm-8">
          <mxGeometry relative="1" as="geometry">
            <mxPoint x="147" y="414.40999999999997" as="sourcePoint" />
            <mxPoint x="247" y="414.40999999999997" as="targetPoint" />
          </mxGeometry>
        </mxCell>
        <mxCell id="16Rfsz4Wqypu9OTbIEwm-33" value="Use" style="edgeLabel;resizable=0;html=1;;align=center;verticalAlign=middle;" connectable="0" vertex="1" parent="16Rfsz4Wqypu9OTbIEwm-32">
          <mxGeometry relative="1" as="geometry" />
        </mxCell>
        <mxCell id="16Rfsz4Wqypu9OTbIEwm-34" value="" style="endArrow=classic;html=1;rounded=0;dashed=1;" edge="1" parent="16Rfsz4Wqypu9OTbIEwm-2" target="16Rfsz4Wqypu9OTbIEwm-8">
          <mxGeometry relative="1" as="geometry">
            <mxPoint x="140" y="340.40999999999997" as="sourcePoint" />
            <mxPoint x="328" y="310" as="targetPoint" />
          </mxGeometry>
        </mxCell>
        <mxCell id="16Rfsz4Wqypu9OTbIEwm-35" value="Use" style="edgeLabel;resizable=0;html=1;;align=center;verticalAlign=middle;" connectable="0" vertex="1" parent="16Rfsz4Wqypu9OTbIEwm-34">
          <mxGeometry relative="1" as="geometry" />
        </mxCell>
        <mxCell id="16Rfsz4Wqypu9OTbIEwm-36" value="" style="endArrow=classic;html=1;rounded=0;dashed=1;" edge="1" parent="16Rfsz4Wqypu9OTbIEwm-2" target="16Rfsz4Wqypu9OTbIEwm-8">
          <mxGeometry relative="1" as="geometry">
            <mxPoint x="130" y="109.99999999999997" as="sourcePoint" />
            <mxPoint x="322" y="132.59" as="targetPoint" />
          </mxGeometry>
        </mxCell>
        <mxCell id="16Rfsz4Wqypu9OTbIEwm-37" value="Use" style="edgeLabel;resizable=0;html=1;;align=center;verticalAlign=middle;" connectable="0" vertex="1" parent="16Rfsz4Wqypu9OTbIEwm-36">
          <mxGeometry relative="1" as="geometry" />
        </mxCell>
        <mxCell id="16Rfsz4Wqypu9OTbIEwm-38" value="" style="endArrow=classic;html=1;rounded=0;dashed=1;entryX=0.104;entryY=0.285;entryDx=0;entryDy=0;entryPerimeter=0;" edge="1" parent="16Rfsz4Wqypu9OTbIEwm-2" target="16Rfsz4Wqypu9OTbIEwm-8">
          <mxGeometry relative="1" as="geometry">
            <mxPoint x="145" y="180" as="sourcePoint" />
            <mxPoint x="382" y="413" as="targetPoint" />
          </mxGeometry>
        </mxCell>
        <mxCell id="16Rfsz4Wqypu9OTbIEwm-39" value="Use" style="edgeLabel;resizable=0;html=1;;align=center;verticalAlign=middle;" connectable="0" vertex="1" parent="16Rfsz4Wqypu9OTbIEwm-38">
          <mxGeometry relative="1" as="geometry" />
        </mxCell>
        <mxCell id="16Rfsz4Wqypu9OTbIEwm-40" value="" style="endArrow=classic;html=1;rounded=0;dashed=1;entryX=0.046;entryY=0.332;entryDx=0;entryDy=0;entryPerimeter=0;" edge="1" parent="16Rfsz4Wqypu9OTbIEwm-2" target="16Rfsz4Wqypu9OTbIEwm-8">
          <mxGeometry relative="1" as="geometry">
            <mxPoint x="138" y="270" as="sourcePoint" />
            <mxPoint x="330" y="292.59000000000003" as="targetPoint" />
          </mxGeometry>
        </mxCell>
        <mxCell id="16Rfsz4Wqypu9OTbIEwm-41" value="Use" style="edgeLabel;resizable=0;html=1;;align=center;verticalAlign=middle;" connectable="0" vertex="1" parent="16Rfsz4Wqypu9OTbIEwm-40">
          <mxGeometry relative="1" as="geometry" />
        </mxCell>
        <mxCell id="16Rfsz4Wqypu9OTbIEwm-43" value="" style="endArrow=block;html=1;rounded=0;endFill=0;fillColor=#e51400;strokeColor=#B20000;" edge="1" parent="16Rfsz4Wqypu9OTbIEwm-2">
          <mxGeometry width="50" height="50" relative="1" as="geometry">
            <mxPoint x="330" y="170" as="sourcePoint" />
            <mxPoint x="150" y="100" as="targetPoint" />
          </mxGeometry>
        </mxCell>
        <mxCell id="16Rfsz4Wqypu9OTbIEwm-51" value="Extends" style="edgeLabel;html=1;align=center;verticalAlign=middle;resizable=0;points=[];" vertex="1" connectable="0" parent="16Rfsz4Wqypu9OTbIEwm-43">
          <mxGeometry x="-0.0291" y="-2" relative="1" as="geometry">
            <mxPoint as="offset" />
          </mxGeometry>
        </mxCell>
        <mxCell id="16Rfsz4Wqypu9OTbIEwm-60" value="repor papel" style="ellipse;whiteSpace=wrap;html=1;fillColor=#f8cecc;strokeColor=#b85450;" vertex="1" parent="16Rfsz4Wqypu9OTbIEwm-2">
          <mxGeometry x="360" y="420" width="90" height="50" as="geometry" />
        </mxCell>
        <mxCell id="16Rfsz4Wqypu9OTbIEwm-62" value="repor dinheiro" style="ellipse;whiteSpace=wrap;html=1;fillColor=#f8cecc;strokeColor=#b85450;" vertex="1" parent="16Rfsz4Wqypu9OTbIEwm-2">
          <mxGeometry x="390" y="490" width="90" height="50" as="geometry" />
        </mxCell>
        <mxCell id="16Rfsz4Wqypu9OTbIEwm-12" value="" style="endArrow=classic;html=1;rounded=0;" edge="1" parent="1">
          <mxGeometry width="50" height="50" relative="1" as="geometry">
            <mxPoint x="60" y="230" as="sourcePoint" />
            <mxPoint x="190" y="250" as="targetPoint" />
          </mxGeometry>
        </mxCell>
        <mxCell id="16Rfsz4Wqypu9OTbIEwm-13" value="" style="endArrow=classic;html=1;rounded=0;" edge="1" parent="1">
          <mxGeometry width="50" height="50" relative="1" as="geometry">
            <mxPoint x="60" y="230" as="sourcePoint" />
            <mxPoint x="190" y="310" as="targetPoint" />
          </mxGeometry>
        </mxCell>
        <mxCell id="16Rfsz4Wqypu9OTbIEwm-14" value="" style="endArrow=classic;html=1;rounded=0;exitX=0.5;exitY=0.5;exitDx=0;exitDy=0;exitPerimeter=0;" edge="1" parent="1" source="16Rfsz4Wqypu9OTbIEwm-1">
          <mxGeometry width="50" height="50" relative="1" as="geometry">
            <mxPoint x="90" y="250" as="sourcePoint" />
            <mxPoint x="190" y="390" as="targetPoint" />
          </mxGeometry>
        </mxCell>
        <mxCell id="16Rfsz4Wqypu9OTbIEwm-15" value="" style="endArrow=classic;html=1;rounded=0;exitX=0.5;exitY=0.5;exitDx=0;exitDy=0;exitPerimeter=0;" edge="1" parent="1">
          <mxGeometry width="50" height="50" relative="1" as="geometry">
            <mxPoint x="70" y="235" as="sourcePoint" />
            <mxPoint x="190" y="470" as="targetPoint" />
          </mxGeometry>
        </mxCell>
        <mxCell id="16Rfsz4Wqypu9OTbIEwm-17" value="Sistema Bancário" style="shape=mxgraph.signs.travel.bank;html=1;pointerEvents=1;fillColor=#000000;strokeColor=none;verticalLabelPosition=bottom;verticalAlign=top;align=center;" vertex="1" parent="1">
          <mxGeometry x="720" y="120" width="70" height="86" as="geometry" />
        </mxCell>
        <mxCell id="16Rfsz4Wqypu9OTbIEwm-44" value="" style="endArrow=block;html=1;rounded=0;endFill=0;fillColor=#e51400;strokeColor=#B20000;" edge="1" parent="1" source="16Rfsz4Wqypu9OTbIEwm-21">
          <mxGeometry width="50" height="50" relative="1" as="geometry">
            <mxPoint x="430" y="260" as="sourcePoint" />
            <mxPoint x="300" y="260" as="targetPoint" />
          </mxGeometry>
        </mxCell>
        <mxCell id="16Rfsz4Wqypu9OTbIEwm-52" value="Extends" style="edgeLabel;html=1;align=center;verticalAlign=middle;resizable=0;points=[];" vertex="1" connectable="0" parent="16Rfsz4Wqypu9OTbIEwm-44">
          <mxGeometry x="0.0295" y="2" relative="1" as="geometry">
            <mxPoint as="offset" />
          </mxGeometry>
        </mxCell>
        <mxCell id="16Rfsz4Wqypu9OTbIEwm-46" value="" style="endArrow=block;html=1;rounded=0;endFill=0;entryX=1.008;entryY=0.34;entryDx=0;entryDy=0;entryPerimeter=0;fillColor=#e51400;strokeColor=#B20000;" edge="1" parent="1" target="16Rfsz4Wqypu9OTbIEwm-5">
          <mxGeometry width="50" height="50" relative="1" as="geometry">
            <mxPoint x="490" y="266" as="sourcePoint" />
            <mxPoint x="310" y="270" as="targetPoint" />
          </mxGeometry>
        </mxCell>
        <mxCell id="16Rfsz4Wqypu9OTbIEwm-53" value="Extends" style="edgeLabel;html=1;align=center;verticalAlign=middle;resizable=0;points=[];" vertex="1" connectable="0" parent="16Rfsz4Wqypu9OTbIEwm-46">
          <mxGeometry x="-0.2632" relative="1" as="geometry">
            <mxPoint as="offset" />
          </mxGeometry>
        </mxCell>
        <mxCell id="16Rfsz4Wqypu9OTbIEwm-47" value="" style="endArrow=block;html=1;rounded=0;endFill=0;fillColor=#e51400;strokeColor=#B20000;" edge="1" parent="1">
          <mxGeometry width="50" height="50" relative="1" as="geometry">
            <mxPoint x="500" y="276" as="sourcePoint" />
            <mxPoint x="300" y="400" as="targetPoint" />
          </mxGeometry>
        </mxCell>
        <mxCell id="16Rfsz4Wqypu9OTbIEwm-50" value="Extends" style="edgeLabel;html=1;align=center;verticalAlign=middle;resizable=0;points=[];" vertex="1" connectable="0" parent="16Rfsz4Wqypu9OTbIEwm-47">
          <mxGeometry x="-0.0956" y="3" relative="1" as="geometry">
            <mxPoint x="-1" as="offset" />
          </mxGeometry>
        </mxCell>
        <mxCell id="16Rfsz4Wqypu9OTbIEwm-48" value="" style="endArrow=block;html=1;rounded=0;endFill=0;fillColor=#e51400;strokeColor=#B20000;" edge="1" parent="1">
          <mxGeometry width="50" height="50" relative="1" as="geometry">
            <mxPoint x="510" y="286" as="sourcePoint" />
            <mxPoint x="300" y="480" as="targetPoint" />
          </mxGeometry>
        </mxCell>
        <mxCell id="16Rfsz4Wqypu9OTbIEwm-49" value="Extends" style="edgeLabel;html=1;align=center;verticalAlign=middle;resizable=0;points=[];" vertex="1" connectable="0" parent="16Rfsz4Wqypu9OTbIEwm-48">
          <mxGeometry x="0.0216" y="-3" relative="1" as="geometry">
            <mxPoint as="offset" />
          </mxGeometry>
        </mxCell>
        <mxCell id="16Rfsz4Wqypu9OTbIEwm-54" value="Funcionário do Banco" style="shape=umlActor;verticalLabelPosition=bottom;verticalAlign=top;html=1;outlineConnect=0;fillColor=#f0a30a;fontColor=#000000;strokeColor=#BD7000;" vertex="1" parent="1">
          <mxGeometry x="730" y="490" width="60" height="110" as="geometry" />
        </mxCell>
        <mxCell id="16Rfsz4Wqypu9OTbIEwm-59" value="" style="endArrow=classic;html=1;rounded=0;" edge="1" parent="1" source="16Rfsz4Wqypu9OTbIEwm-54">
          <mxGeometry width="50" height="50" relative="1" as="geometry">
            <mxPoint x="630" y="510" as="sourcePoint" />
            <mxPoint x="610" y="530" as="targetPoint" />
          </mxGeometry>
        </mxCell>
        <mxCell id="16Rfsz4Wqypu9OTbIEwm-63" value="" style="endArrow=classic;html=1;rounded=0;entryX=1.01;entryY=0.354;entryDx=0;entryDy=0;entryPerimeter=0;" edge="1" parent="1" target="16Rfsz4Wqypu9OTbIEwm-62">
          <mxGeometry width="50" height="50" relative="1" as="geometry">
            <mxPoint x="740" y="552" as="sourcePoint" />
            <mxPoint x="620" y="540" as="targetPoint" />
          </mxGeometry>
        </mxCell>
      </root>
    </mxGraphModel>
  </diagram>
</mxfile>
